<svg width="119" height="24" viewBox="0 0 119 24" fill="none" xmlns="http://www.w3.org/2000/svg">
<g clip-path="url(#clip0_1_1018)">
<path d="M101.604 11.0168L98.2089 16.2592L93.067 13.0912C92.5312 12.7511 92.1531 12.2145 92.0156 11.5988C91.878 10.9831 91.9922 10.3384 92.3331 9.80592L95.6474 4.5166L100.856 7.73149C101.394 8.0693 101.775 8.60491 101.915 9.2208C102.055 9.8367 101.943 10.4826 101.604 11.0168Z" fill="#EB971A"/>
<path d="M118.818 0.451675L108.686 16.4472C108.457 16.8064 108.149 17.1007 107.787 17.3042C107.426 17.5077 107.023 17.614 106.613 17.6139H99.6978L109.74 1.61836C109.966 1.2583 110.274 0.963257 110.635 0.759646C110.996 0.556035 111.399 0.450219 111.808 0.451675H118.818Z" fill="#33302D"/>
<path d="M7.4704 17.853C5.91557 17.9062 4.3735 17.5575 2.99538 16.8413C1.84373 16.2163 0.944837 15.2161 0.450586 14.0096C-0.0589458 12.656 -0.147745 11.1819 0.195652 9.77773L1.81176 1.77923C1.89245 1.39556 2.10408 1.05126 2.41094 0.804422C2.7178 0.557586 3.1011 0.423333 3.49615 0.424318H7.88922L6.01818 9.71901C5.91089 10.2311 5.86959 10.7547 5.89527 11.2772C5.91375 11.6645 6.02787 12.0413 6.2276 12.3746C6.41276 12.6646 6.68278 12.8915 7.0015 13.025C7.37876 13.1692 7.78097 13.2383 8.18513 13.2282C8.68617 13.2412 9.18196 13.1244 9.6237 12.8895C10.0626 12.6202 10.4124 12.2293 10.6298 11.7649C10.9461 11.105 11.1668 10.4041 11.2853 9.68288L12.8787 1.76117C12.9594 1.3775 13.171 1.0332 13.4778 0.786359C13.7847 0.539523 14.168 0.405271 14.5631 0.406255H18.856L16.9167 10.0397C16.4068 12.5959 15.3658 14.5395 13.7937 15.8703C12.2216 17.2011 10.1138 17.862 7.4704 17.853Z" fill="#33302D"/>
<path d="M41.3586 15.5767L44.4178 0.388184H48.2828C48.5178 0.38907 48.7497 0.441503 48.9618 0.541732C49.174 0.64196 49.3612 0.787503 49.51 0.967926C49.6588 1.14835 49.7655 1.35919 49.8225 1.58534C49.8795 1.81149 49.8854 2.04736 49.8398 2.27603L46.7942 17.4601H42.9292C42.693 17.4627 42.4592 17.4129 42.245 17.3143C42.0307 17.2158 41.8413 17.0709 41.6908 16.8904C41.5402 16.7098 41.4322 16.4981 41.3748 16.2709C41.3173 16.0436 41.3118 15.8064 41.3586 15.5767Z" fill="#33302D"/>
<path d="M50.9915 15.5768L54.0781 0.388205H61.8172C63.4301 0.354737 65.0317 0.662667 66.5153 1.29148C67.7517 1.80271 68.8092 2.66341 69.5563 3.76645C70.2823 4.92471 70.6496 6.269 70.6124 7.63247C70.6349 9.02762 70.3635 10.412 69.8158 11.6972C69.2999 12.8763 68.5363 13.9326 67.576 14.7954C66.587 15.6749 65.4286 16.3463 64.1708 16.7691C62.7785 17.2378 61.3161 17.4684 59.846 17.4511H52.5621C52.3271 17.4526 52.0947 17.4024 51.8816 17.3041C51.6686 17.2058 51.4801 17.0618 51.3299 16.8825C51.1797 16.7032 51.0714 16.4931 51.0129 16.2673C50.9544 16.0415 50.9471 15.8057 50.9915 15.5768ZM57.3239 12.9753H60.0281C60.9407 13.0067 61.8426 12.7728 62.6229 12.3024C63.3133 11.8618 63.8628 11.2351 64.2072 10.4958C64.5743 9.70458 64.7593 8.8422 64.7489 7.9712C64.768 7.38383 64.6281 6.80211 64.3437 6.28659C64.0608 5.8217 63.6392 5.45555 63.1374 5.23879C62.513 4.97729 61.8391 4.85252 61.1616 4.87297H58.9491L57.3239 12.9753Z" fill="#33302D"/>
<path d="M78.5154 13.1198H87.1422L86.2591 17.4601H73.8902C73.6551 17.4607 73.4229 17.4094 73.2103 17.3099C72.9977 17.2105 72.8101 17.0654 72.6611 16.8851C72.512 16.7048 72.4053 16.4938 72.3486 16.2675C72.2919 16.0413 72.2866 15.8053 72.3332 15.5767L75.3925 0.388184H89.8691L88.9177 4.73293H80.2089L78.5154 13.1198ZM79.5397 7.78148H87.2105L86.3729 11.2049H78.7021L79.5397 7.78148Z" fill="#33302D"/>
<path d="M28.7849 17.853C27.1843 17.8936 25.5966 17.5594 24.1505 16.8774C22.9045 16.2766 21.8562 15.3368 21.1277 14.1676C20.4006 12.9743 20.0297 11.6009 20.0579 10.2068C20.0388 8.78852 20.3099 7.38116 20.8546 6.06977C21.371 4.85066 22.1368 3.75109 23.1035 2.84056C24.0963 1.91548 25.2668 1.19817 26.5451 0.731412C27.9383 0.223591 29.413 -0.0289057 30.8972 -0.0137863C32.4978 -0.0543917 34.0855 0.279823 35.5315 0.961752C36.7776 1.56264 37.8259 2.5024 38.5543 3.67157C39.2814 4.86489 39.6524 6.23834 39.6242 7.63243C39.6432 9.05068 39.3722 10.458 38.8275 11.7694C38.31 12.988 37.5443 14.0873 36.5786 14.9986C35.5857 15.9237 34.4152 16.641 33.137 17.1078C31.7437 17.6156 30.2691 17.8681 28.7849 17.853ZM29.2765 13.1921C29.9347 13.2067 30.5869 13.0658 31.1794 12.7811C31.7283 12.503 32.211 12.1119 32.5952 11.6339C32.9928 11.1369 33.2925 10.57 33.4784 9.96288C33.6776 9.31909 33.7773 8.6491 33.7743 7.97568C33.7887 7.37006 33.6494 6.77058 33.3691 6.23236C33.1051 5.74253 32.7034 5.33929 32.2128 5.07165C31.6522 4.77957 31.0248 4.63643 30.3919 4.65614C29.7366 4.64606 29.088 4.78836 28.4981 5.07165C27.9447 5.34683 27.4585 5.73829 27.0732 6.21881C26.6755 6.71583 26.3759 7.28274 26.19 7.88986C25.9908 8.53365 25.891 9.20364 25.8941 9.87707C25.882 10.4781 26.0212 11.0727 26.2992 11.6068C26.56 12.1025 26.9622 12.5109 27.4556 12.7811C28.0167 13.0716 28.644 13.2132 29.2765 13.1921Z" fill="#33302D"/>
<path d="M28.7803 24.0002C27.1106 24.0542 25.4611 23.6259 24.0322 22.7672C23.3375 22.3159 22.7223 21.7545 22.2112 21.1052C22.0376 20.8852 21.924 20.6247 21.8811 20.3486C21.8382 20.0726 21.8675 19.7902 21.9662 19.5286C22.0649 19.267 22.2297 19.035 22.4448 18.8547C22.6599 18.6745 22.918 18.552 23.1945 18.4992L27.146 17.7314C27.264 18.3976 27.5577 19.021 27.9973 19.538C28.3682 19.8539 28.8476 20.0157 29.3357 19.9896C29.7886 19.9836 30.2358 19.8884 30.6514 19.7096C31.0165 19.5464 31.4286 19.5191 31.8123 19.6328C32.1961 19.7464 32.5257 19.9933 32.7409 20.3284L33.9701 22.2885C33.3145 22.8743 32.5376 23.3106 31.6939 23.5666C30.7511 23.8596 29.7682 24.0059 28.7803 24.0002Z" fill="#33302D"/>
</g>
<defs>
<clipPath id="clip0_1_1018">
<rect width="119" height="24" fill="white"/>
</clipPath>
</defs>
</svg>
